<svg width="67" height="67" viewBox="0 0 67 67" fill="none" xmlns="http://www.w3.org/2000/svg">
<path d="M33.5603 0.25116C15.0954 0.25116 0.122314 15.4768 0.122314 34.26C0.122314 49.2863 9.70331 62.0344 22.9892 66.5314C24.6604 66.8463 25.2739 65.7937 25.2739 64.8954C25.2739 64.0844 25.2429 61.4054 25.2285 58.5635C15.926 60.6209 13.9631 54.5509 13.9631 54.5509C12.442 50.6199 10.2504 49.5746 10.2504 49.5746C7.21656 47.4638 10.4791 47.5072 10.4791 47.5072C13.8368 47.7465 15.6048 51.0118 15.6048 51.0118C18.5872 56.2111 23.4272 54.708 25.3354 53.839C25.6355 51.6415 26.502 50.14 27.4583 49.2913C20.0313 48.4313 12.2238 45.5152 12.2238 32.4837C12.2238 28.7707 13.5301 25.7368 15.6691 23.3551C15.3219 22.498 14.1774 19.0395 15.993 14.3549C15.993 14.3549 18.8009 13.4409 25.1908 17.841C27.8581 17.0875 30.7186 16.7096 33.5603 16.6966C36.402 16.7096 39.2647 17.0875 41.937 17.841C48.3191 13.4409 51.1232 14.3549 51.1232 14.3549C52.9432 19.0395 51.7981 22.498 51.4509 23.3551C53.5949 25.7368 54.8923 28.7707 54.8923 32.4837C54.8923 45.5462 47.0699 48.4223 39.6241 49.2643C40.8234 50.3197 41.8921 52.3894 41.8921 55.5624C41.8921 60.1123 41.8533 63.7747 41.8533 64.8954C41.8533 65.8004 42.4552 66.8609 44.1502 66.5269C57.4289 62.0249 66.9977 49.2812 66.9977 34.26C66.9977 15.4768 52.0268 0.25116 33.5603 0.25116" fill="#4A4A4A"/>
<path d="M12.7869 49.0807C12.7132 49.2502 12.4519 49.3004 12.2138 49.1844C11.9712 49.0734 11.835 48.8431 11.9137 48.6736C11.9856 48.4995 12.2475 48.4517 12.4895 48.5671C12.7326 48.6786 12.871 48.9112 12.7869 49.0807" fill="#4A4A4A"/>
<path d="M14.1413 50.6171C13.9819 50.7674 13.6701 50.6976 13.4586 50.46C13.2399 50.2229 13.1989 49.9058 13.3606 49.7532C13.5251 49.6028 13.8274 49.6732 14.0467 49.9103C14.2654 50.1502 14.308 50.465 14.1413 50.6171" fill="#4A4A4A"/>
<path d="M15.4599 52.5758C15.255 52.7205 14.92 52.5848 14.7129 52.2824C14.508 51.98 14.508 51.6173 14.7174 51.472C14.925 51.3267 15.255 51.4573 15.4649 51.7575C15.6692 52.0644 15.6692 52.4277 15.4599 52.5758" fill="#4A4A4A"/>
<path d="M17.2659 54.4681C17.0826 54.6736 16.6922 54.6184 16.4065 54.338C16.1142 54.0637 16.0328 53.6745 16.2166 53.469C16.4021 53.2628 16.7947 53.3209 17.0826 53.5991C17.3728 53.8728 17.4614 54.2647 17.2659 54.4681" fill="#4A4A4A"/>
<path d="M19.7578 55.5669C19.677 55.8333 19.301 55.9544 18.9223 55.8412C18.5441 55.7246 18.2966 55.4126 18.373 55.1434C18.4516 54.8753 18.8293 54.7492 19.2108 54.8703C19.5884 54.9863 19.8365 55.296 19.7578 55.5669" fill="#4A4A4A"/>
<path d="M22.4943 55.7708C22.5037 56.0512 22.1825 56.2838 21.785 56.2883C21.3852 56.2979 21.0618 56.071 21.0574 55.795C21.0574 55.5117 21.3713 55.2814 21.7711 55.2746C22.1687 55.2667 22.4943 55.492 22.4943 55.7708" fill="#4A4A4A"/>
<path d="M25.0409 55.3298C25.0885 55.6035 24.8122 55.8845 24.4174 55.9589C24.0293 56.0315 23.6699 55.8625 23.6206 55.5911C23.5724 55.3106 23.8537 55.0296 24.2413 54.957C24.6367 54.8871 24.9905 55.0516 25.0409 55.3298" fill="#4A4A4A"/>
</svg>
