<svg width="67" height="72" viewBox="0 0 67 72" fill="none" xmlns="http://www.w3.org/2000/svg">
<path d="M33.5603 0.269409C15.0954 0.269409 0.122314 16.6026 0.122314 36.7522C0.122314 52.8716 9.70331 66.5471 22.9892 71.3712C24.6604 71.709 25.2739 70.5798 25.2739 69.6162C25.2739 68.7462 25.2429 65.8723 25.2285 62.8237C15.926 65.0307 13.9631 58.5192 13.9631 58.5192C12.442 54.3022 10.2504 53.1809 10.2504 53.1809C7.21656 50.9165 10.4791 50.963 10.4791 50.963C13.8368 51.2198 15.6048 54.7227 15.6048 54.7227C18.5872 60.3002 23.4272 58.6877 25.3354 57.7555C25.6355 55.3981 26.502 53.7874 27.4583 52.877C20.0313 51.9545 12.2238 48.8262 12.2238 34.8467C12.2238 30.8636 13.5301 27.609 15.6691 25.0541C15.3219 24.1345 14.1774 20.4245 15.993 15.3991C15.993 15.3991 18.8009 14.4186 25.1908 19.1388C27.8581 18.3305 30.7186 17.9251 33.5603 17.9112C36.402 17.9251 39.2647 18.3305 41.937 19.1388C48.3191 14.4186 51.1232 15.3991 51.1232 15.3991C52.9432 20.4245 51.7981 24.1345 51.4509 25.0541C53.5949 27.609 54.8923 30.8636 54.8923 34.8467C54.8923 48.8594 47.0699 51.9448 39.6241 52.848C40.8234 53.9802 41.8921 56.2004 41.8921 59.6042C41.8921 64.4851 41.8533 68.4139 41.8533 69.6162C41.8533 70.5871 42.4552 71.7247 44.1502 71.3664C57.4289 66.5368 66.9977 52.8661 66.9977 36.7522C66.9977 16.6026 52.0268 0.269409 33.5603 0.269409" fill="#4A4A4A"/>
<path d="M12.7869 52.651C12.7132 52.8328 12.4519 52.8866 12.2138 52.7622C11.9712 52.6431 11.835 52.396 11.9137 52.2142C11.9856 52.0275 12.2475 51.9762 12.4895 52.1C12.7326 52.2196 12.871 52.4691 12.7869 52.651" fill="#4A4A4A"/>
<path d="M14.1413 54.2992C13.9819 54.4605 13.6701 54.3856 13.4586 54.1307C13.2399 53.8763 13.1989 53.5362 13.3606 53.3724C13.5251 53.2111 13.8274 53.2867 14.0467 53.541C14.2654 53.7984 14.308 54.1361 14.1413 54.2992" fill="#4A4A4A"/>
<path d="M15.4599 56.4004C15.255 56.5557 14.92 56.4101 14.7129 56.0856C14.508 55.7612 14.508 55.3721 14.7174 55.2163C14.925 55.0604 15.255 55.2006 15.4649 55.5226C15.6692 55.8518 15.6692 56.2415 15.4599 56.4004" fill="#4A4A4A"/>
<path d="M17.2659 58.4303C17.0826 58.6508 16.6922 58.5916 16.4065 58.2908C16.1142 57.9965 16.0328 57.5791 16.2166 57.3586C16.4021 57.1374 16.7947 57.1997 17.0826 57.4981C17.3728 57.7917 17.4614 58.2122 17.2659 58.4303" fill="#4A4A4A"/>
<path d="M19.7578 59.609C19.677 59.8947 19.301 60.0246 18.9223 59.9032C18.5441 59.7781 18.2966 59.4434 18.373 59.1547C18.4516 58.8671 18.8293 58.7318 19.2108 58.8616C19.5884 58.9861 19.8365 59.3184 19.7578 59.609" fill="#4A4A4A"/>
<path d="M22.4943 59.8278C22.5037 60.1286 22.1825 60.3781 21.785 60.383C21.3852 60.3932 21.0618 60.1498 21.0574 59.8537C21.0574 59.5499 21.3713 59.3028 21.7711 59.2955C22.1687 59.287 22.4943 59.5287 22.4943 59.8278" fill="#4A4A4A"/>
<path d="M25.0409 59.3546C25.0885 59.6483 24.8122 59.9497 24.4174 60.0295C24.0293 60.1074 23.6699 59.9262 23.6206 59.635C23.5724 59.3341 23.8537 59.0326 24.2413 58.9547C24.6367 58.8798 24.9905 59.0562 25.0409 59.3546" fill="#4A4A4A"/>
</svg>
