<svg width="67" height="72" viewBox="0 0 67 72" fill="none" xmlns="http://www.w3.org/2000/svg">
<path fill-rule="evenodd" clip-rule="evenodd" d="M33.5 0C14.9985 0 0 16.0895 0 35.937C0 55.7844 14.9985 71.8739 33.5 71.8739C52.0015 71.8739 67 55.7844 67 35.937C67 16.0895 52.0015 0 33.5 0ZM16.0823 29.7645H23.6741V54.2342H16.0823V29.7645ZM24.1741 22.1951C24.1248 19.7959 22.5255 17.9685 19.9284 17.9685C17.3312 17.9685 15.6333 19.7959 15.6333 22.1951C15.6333 24.5446 17.2811 26.4247 19.8298 26.4247H19.8783C22.5255 26.4247 24.1741 24.5446 24.1741 22.1951ZM42.3121 29.19C47.3079 29.19 51.0531 32.688 51.0531 40.2041L51.0528 54.2342H43.4613V41.1429C43.4613 37.8547 42.3627 35.6109 39.6145 35.6109C37.517 35.6109 36.2678 37.1235 35.7191 38.5845C35.5183 39.1081 35.4691 39.8377 35.4691 40.569V54.2349H27.8763C27.8763 54.2349 27.9764 32.0613 27.8763 29.7652H35.4691V33.2311C36.4767 31.565 38.2813 29.19 42.3121 29.19Z" fill="#4A4A4A"/>
</svg>
