<svg width="67" height="67" viewBox="0 0 67 67" fill="none" xmlns="http://www.w3.org/2000/svg">
<path fill-rule="evenodd" clip-rule="evenodd" d="M33.5 0C14.9985 0 0 14.9985 0 33.5C0 52.0015 14.9985 67 33.5 67C52.0015 67 67 52.0015 67 33.5C67 14.9985 52.0015 0 33.5 0ZM16.0823 27.7461H23.6741V50.5565H16.0823V27.7461ZM24.1741 20.69C24.1248 18.4535 22.5255 16.75 19.9284 16.75C17.3312 16.75 15.6333 18.4535 15.6333 20.69C15.6333 22.8802 17.2811 24.6328 19.8298 24.6328H19.8783C22.5255 24.6328 24.1741 22.8802 24.1741 20.69ZM42.3121 27.2105C47.3079 27.2105 51.0531 30.4714 51.0531 37.4777L51.0528 50.5565H43.4613V38.353C43.4613 35.2877 42.3627 33.196 39.6145 33.196C37.517 33.196 36.2678 34.6061 35.7191 35.9681C35.5183 36.4561 35.4691 37.1362 35.4691 37.8179V50.5571H27.8763C27.8763 50.5571 27.9764 29.8872 27.8763 27.7468H35.4691V30.9777C36.4767 29.4245 38.2813 27.2105 42.3121 27.2105Z" fill="#4A4A4A"/>
</svg>
