<svg width="32" height="32" viewBox="0 0 32 32" fill="none" xmlns="http://www.w3.org/2000/svg">
<rect width="32" height="32" rx="16" fill="#E8DFF3"/>
<path fill-rule="evenodd" clip-rule="evenodd" d="M9.33337 10.1667C8.87694 10.1667 8.50004 10.5436 8.50004 11V21C8.50004 21.4564 8.87694 21.8333 9.33337 21.8333H22.6667C23.1231 21.8333 23.5 21.4564 23.5 21V11C23.5 10.5436 23.1231 10.1667 22.6667 10.1667H9.33337ZM6.83337 11C6.83337 9.6231 7.95647 8.5 9.33337 8.5H22.6667C24.0436 8.5 25.1667 9.6231 25.1667 11V21C25.1667 22.3769 24.0436 23.5 22.6667 23.5H9.33337C7.95647 23.5 6.83337 22.3769 6.83337 21V11Z" fill="#381362"/>
<path fill-rule="evenodd" clip-rule="evenodd" d="M6.98396 10.5221C7.24789 10.145 7.7675 10.0533 8.14454 10.3173L16 15.8161L23.8554 10.3173C24.2325 10.0533 24.7521 10.145 25.016 10.5221C25.2799 10.8991 25.1882 11.4187 24.8112 11.6827L16.4779 17.516C16.1909 17.7168 15.809 17.7168 15.5221 17.516L7.18877 11.6827C6.81173 11.4187 6.72003 10.8991 6.98396 10.5221Z" fill="#381362"/>
</svg>
