<svg width="33" height="32" viewBox="0 0 33 32" fill="none" xmlns="http://www.w3.org/2000/svg">
<rect x="0.5" width="32" height="32" rx="16" fill="#E8DFF3"/>
<path fill-rule="evenodd" clip-rule="evenodd" d="M19.8333 13.5C18.7283 13.5 17.6685 13.939 16.8871 14.7204C16.1057 15.5018 15.6667 16.5616 15.6667 17.6666V22.6666H17.3333V17.6666C17.3333 17.0036 17.5967 16.3677 18.0656 15.8989C18.5344 15.43 19.1703 15.1666 19.8333 15.1666C20.4964 15.1666 21.1323 15.43 21.6011 15.8989C22.0699 16.3677 22.3333 17.0036 22.3333 17.6666V22.6666H24V17.6666C24 16.5616 23.561 15.5018 22.7796 14.7204C21.9982 13.939 20.9384 13.5 19.8333 13.5ZM15.7085 13.5419C16.8025 12.4479 18.2862 11.8333 19.8333 11.8333C21.3804 11.8333 22.8642 12.4479 23.9581 13.5419C25.0521 14.6358 25.6667 16.1196 25.6667 17.6666V23.5C25.6667 23.9602 25.2936 24.3333 24.8333 24.3333H21.5C21.0398 24.3333 20.6667 23.9602 20.6667 23.5V17.6666C20.6667 17.4456 20.5789 17.2337 20.4226 17.0774C20.2663 16.9211 20.0543 16.8333 19.8333 16.8333C19.6123 16.8333 19.4004 16.9211 19.2441 17.0774C19.0878 17.2337 19 17.4456 19 17.6666V23.5C19 23.9602 18.6269 24.3333 18.1667 24.3333H14.8333C14.3731 24.3333 14 23.9602 14 23.5V17.6666C14 16.1196 14.6146 14.6358 15.7085 13.5419Z" fill="#381362"/>
<path fill-rule="evenodd" clip-rule="evenodd" d="M7.33337 13.5C7.33337 13.0398 7.70647 12.6667 8.16671 12.6667H11.5C11.9603 12.6667 12.3334 13.0398 12.3334 13.5V23.5C12.3334 23.9603 11.9603 24.3334 11.5 24.3334H8.16671C7.70647 24.3334 7.33337 23.9603 7.33337 23.5V13.5ZM9.00004 14.3334V22.6667H10.6667V14.3334H9.00004Z" fill="#381362"/>
<path fill-rule="evenodd" clip-rule="evenodd" d="M9.83337 8.49998C9.37314 8.49998 9.00004 8.87308 9.00004 9.33331C9.00004 9.79355 9.37314 10.1666 9.83337 10.1666C10.2936 10.1666 10.6667 9.79355 10.6667 9.33331C10.6667 8.87308 10.2936 8.49998 9.83337 8.49998ZM7.33337 9.33331C7.33337 7.9526 8.45266 6.83331 9.83337 6.83331C11.2141 6.83331 12.3334 7.9526 12.3334 9.33331C12.3334 10.714 11.2141 11.8333 9.83337 11.8333C8.45266 11.8333 7.33337 10.714 7.33337 9.33331Z" fill="#381362"/>
</svg>
