<svg width="32" height="32" viewBox="0 0 32 32" fill="none" xmlns="http://www.w3.org/2000/svg">
<rect width="32" height="32" rx="16" fill="#E8DFF3"/>
<path d="M25.9994 20.9837V24.0005C26.0005 24.2806 25.9432 24.5578 25.831 24.8144C25.7188 25.071 25.5542 25.3013 25.3478 25.4907C25.1415 25.68 24.8978 25.8241 24.6325 25.9139C24.3672 26.0036 24.0861 26.0369 23.8072 26.0117C20.7128 25.6755 17.7404 24.6181 15.1289 22.9245C12.6992 21.3806 10.6393 19.3207 9.09534 16.891C7.39586 14.2676 6.33824 11.2807 6.00816 8.17246C5.98303 7.89438 6.01608 7.61411 6.1052 7.3495C6.19432 7.0849 6.33757 6.84174 6.52581 6.63553C6.71405 6.42931 6.94317 6.26455 7.19858 6.15174C7.45398 6.03892 7.73008 5.98052 8.0093 5.98026H11.0261C11.5141 5.97546 11.9872 6.14827 12.3572 6.4665C12.7273 6.78472 12.969 7.22664 13.0373 7.70988C13.1646 8.67532 13.4007 9.62326 13.7412 10.5356C13.8765 10.8955 13.9058 11.2867 13.8256 11.6628C13.7454 12.0388 13.559 12.384 13.2887 12.6574L12.0116 13.9345C13.4431 16.4521 15.5276 18.5366 18.0451 19.9681L19.3222 18.691C19.5956 18.4206 19.9408 18.2343 20.3169 18.1541C20.6929 18.0739 21.0841 18.1032 21.444 18.2385C22.3564 18.5789 23.3043 18.815 24.2698 18.9424C24.7582 19.0113 25.2044 19.2573 25.5233 19.6337C25.8422 20.0101 26.0116 20.4906 25.9994 20.9837Z" stroke="#381362" stroke-width="2.5" stroke-linecap="round" stroke-linejoin="round"/>
</svg>
